STARTFONT 2.1
COMMENT
COMMENT Converted from OpenType font "DSEG7ClassicMini-Bold.ttf" by "otf2bdf 3.0".
COMMENT
FONT -FreeType-DSEG7 Classic Mini-Bold-R-Normal--18-130-100-100-P-102-ISO10646-1
SIZE 13 100 100
FONTBOUNDINGBOX 14 18 -1 0
STARTPROPERTIES 19
FOUNDRY "FreeType"
FAMILY_NAME "DSEG7 Classic Mini"
WEIGHT_NAME "Bold"
SLANT "R"
SETWIDTH_NAME "Normal"
ADD_STYLE_NAME ""
PIXEL_SIZE 18
POINT_SIZE 130
RESOLUTION_X 100
RESOLUTION_Y 100
SPACING "P"
AVERAGE_WIDTH 102
CHARSET_REGISTRY "ISO10646"
CHARSET_ENCODING "1"
FONT_ASCENT 18
FONT_DESCENT 0
COPYRIGHT "Created by Keshikan  with FontForge 2.0 (http://fontforge.sf.net)"
_OTF_FONTFILE "DSEG7ClassicMini-Bold.ttf"
_OTF_PSNAME "DSEG7ClassicMini-Bold"
ENDPROPERTIES
CHARS 69
STARTCHAR 0020
ENCODING 32
SWIDTH 221 0
DWIDTH 4 0
BBX 0 0 0 0
BITMAP
ENDCHAR
STARTCHAR 0021
ENCODING 33
SWIDTH 830 0
DWIDTH 15 0
BBX 0 0 0 0
BITMAP
ENDCHAR
STARTCHAR 002D
ENCODING 45
SWIDTH 830 0
DWIDTH 15 0
BBX 7 2 4 8
BITMAP
FE
FE
ENDCHAR
STARTCHAR 002E
ENCODING 46
SWIDTH 0 0
DWIDTH 0 0
BBX 2 2 -1 0
BITMAP
C0
C0
ENDCHAR
STARTCHAR 0030
ENCODING 48
SWIDTH 830 0
DWIDTH 15 0
BBX 11 18 2 0
BITMAP
7FC0
BFA0
C060
C060
C060
C060
C060
8020
0000
0000
8020
C060
C060
C060
C060
C060
BFA0
7FC0
ENDCHAR
STARTCHAR 0031
ENCODING 49
SWIDTH 830 0
DWIDTH 15 0
BBX 2 16 11 1
BITMAP
40
C0
C0
C0
C0
C0
40
00
00
40
C0
C0
C0
C0
C0
40
ENDCHAR
STARTCHAR 0032
ENCODING 50
SWIDTH 830 0
DWIDTH 15 0
BBX 11 18 2 0
BITMAP
7FC0
3FA0
0060
0060
0060
0060
0060
0020
3F80
3F80
8000
C000
C000
C000
C000
C000
BF80
7FC0
ENDCHAR
STARTCHAR 0033
ENCODING 51
SWIDTH 830 0
DWIDTH 15 0
BBX 10 18 3 0
BITMAP
FF80
7F40
00C0
00C0
00C0
00C0
00C0
0040
7F00
7F00
0040
00C0
00C0
00C0
00C0
00C0
7F40
FF80
ENDCHAR
STARTCHAR 0034
ENCODING 52
SWIDTH 830 0
DWIDTH 15 0
BBX 11 16 2 1
BITMAP
8020
C060
C060
C060
C060
C060
8020
3F80
3F80
0020
0060
0060
0060
0060
0060
0020
ENDCHAR
STARTCHAR 0035
ENCODING 53
SWIDTH 830 0
DWIDTH 15 0
BBX 11 18 2 0
BITMAP
7FC0
BF80
C000
C000
C000
C000
C000
8000
3F80
3F80
0020
0060
0060
0060
0060
0060
3FA0
7FC0
ENDCHAR
STARTCHAR 0036
ENCODING 54
SWIDTH 830 0
DWIDTH 15 0
BBX 11 18 2 0
BITMAP
7FC0
BF80
C000
C000
C000
C000
C000
8000
3F80
3F80
8020
C060
C060
C060
C060
C060
BFA0
7FC0
ENDCHAR
STARTCHAR 0037
ENCODING 55
SWIDTH 830 0
DWIDTH 15 0
BBX 11 17 2 1
BITMAP
7FC0
BFA0
C060
C060
C060
C060
C060
8020
0000
0000
0020
0060
0060
0060
0060
0060
0020
ENDCHAR
STARTCHAR 0038
ENCODING 56
SWIDTH 830 0
DWIDTH 15 0
BBX 11 18 2 0
BITMAP
7FC0
BFA0
C060
C060
C060
C060
C060
8020
3F80
3F80
8020
C060
C060
C060
C060
C060
BFA0
7FC0
ENDCHAR
STARTCHAR 0039
ENCODING 57
SWIDTH 830 0
DWIDTH 15 0
BBX 11 18 2 0
BITMAP
7FC0
BFA0
C060
C060
C060
C060
C060
8020
3F80
3F80
0020
0060
0060
0060
0060
0060
3FA0
7FC0
ENDCHAR
STARTCHAR 003A
ENCODING 58
SWIDTH 221 0
DWIDTH 4 0
BBX 2 10 1 4
BITMAP
80
C0
80
00
00
00
00
00
C0
C0
ENDCHAR
STARTCHAR 0041
ENCODING 65
SWIDTH 830 0
DWIDTH 15 0
BBX 11 17 2 1
BITMAP
7FC0
BFA0
C060
C060
C060
C060
C060
8020
3F80
3F80
8020
C060
C060
C060
C060
C060
8020
ENDCHAR
STARTCHAR 0042
ENCODING 66
SWIDTH 830 0
DWIDTH 15 0
BBX 11 17 2 0
BITMAP
8000
C000
C000
C000
C000
C000
8000
3F80
3F80
8020
C060
C060
C060
C060
C060
BFA0
7FC0
ENDCHAR
STARTCHAR 0043
ENCODING 67
SWIDTH 830 0
DWIDTH 15 0
BBX 10 10 2 0
BITMAP
3F80
3F80
8000
C000
C000
C000
C000
C000
BF80
7FC0
ENDCHAR
STARTCHAR 0044
ENCODING 68
SWIDTH 830 0
DWIDTH 15 0
BBX 11 17 2 0
BITMAP
0020
0060
0060
0060
0060
0060
0020
3F80
3F80
8020
C060
C060
C060
C060
C060
BFA0
7FC0
ENDCHAR
STARTCHAR 0045
ENCODING 69
SWIDTH 830 0
DWIDTH 15 0
BBX 10 18 2 0
BITMAP
7FC0
BF80
C000
C000
C000
C000
C000
8000
3F80
3F80
8000
C000
C000
C000
C000
C000
BF80
7FC0
ENDCHAR
STARTCHAR 0046
ENCODING 70
SWIDTH 830 0
DWIDTH 15 0
BBX 10 17 2 1
BITMAP
7FC0
BF80
C000
C000
C000
C000
C000
8000
3F80
3F80
8000
C000
C000
C000
C000
C000
8000
ENDCHAR
STARTCHAR 0047
ENCODING 71
SWIDTH 830 0
DWIDTH 15 0
BBX 11 18 2 0
BITMAP
7FC0
BF80
C000
C000
C000
C000
C000
8000
0000
0000
8020
C060
C060
C060
C060
C060
BFA0
7FC0
ENDCHAR
STARTCHAR 0048
ENCODING 72
SWIDTH 830 0
DWIDTH 15 0
BBX 11 16 2 1
BITMAP
8000
C000
C000
C000
C000
C000
8000
3F80
3F80
8020
C060
C060
C060
C060
C060
8020
ENDCHAR
STARTCHAR 0049
ENCODING 73
SWIDTH 830 0
DWIDTH 15 0
BBX 2 7 11 1
BITMAP
40
C0
C0
C0
C0
C0
40
ENDCHAR
STARTCHAR 004A
ENCODING 74
SWIDTH 830 0
DWIDTH 15 0
BBX 11 17 2 0
BITMAP
0020
0060
0060
0060
0060
0060
0020
0000
0000
8020
C060
C060
C060
C060
C060
BFA0
7FC0
ENDCHAR
STARTCHAR 004B
ENCODING 75
SWIDTH 830 0
DWIDTH 15 0
BBX 11 17 2 1
BITMAP
7FC0
BF80
C000
C000
C000
C000
C000
8000
3F80
3F80
8020
C060
C060
C060
C060
C060
8020
ENDCHAR
STARTCHAR 004C
ENCODING 76
SWIDTH 830 0
DWIDTH 15 0
BBX 10 17 2 0
BITMAP
8000
C000
C000
C000
C000
C000
8000
0000
0000
8000
C000
C000
C000
C000
C000
BF80
7FC0
ENDCHAR
STARTCHAR 004D
ENCODING 77
SWIDTH 830 0
DWIDTH 15 0
BBX 11 17 2 1
BITMAP
7FC0
BFA0
C060
C060
C060
C060
C060
8020
0000
0000
8020
C060
C060
C060
C060
C060
8020
ENDCHAR
STARTCHAR 004E
ENCODING 78
SWIDTH 830 0
DWIDTH 15 0
BBX 11 9 2 1
BITMAP
3F80
3F80
8020
C060
C060
C060
C060
C060
8020
ENDCHAR
STARTCHAR 004F
ENCODING 79
SWIDTH 830 0
DWIDTH 15 0
BBX 11 10 2 0
BITMAP
3F80
3F80
8020
C060
C060
C060
C060
C060
BFA0
7FC0
ENDCHAR
STARTCHAR 0050
ENCODING 80
SWIDTH 830 0
DWIDTH 15 0
BBX 11 17 2 1
BITMAP
7FC0
BFA0
C060
C060
C060
C060
C060
8020
3F80
3F80
8000
C000
C000
C000
C000
C000
8000
ENDCHAR
STARTCHAR 0051
ENCODING 81
SWIDTH 830 0
DWIDTH 15 0
BBX 11 17 2 1
BITMAP
7FC0
BFA0
C060
C060
C060
C060
C060
8020
3F80
3F80
0020
0060
0060
0060
0060
0060
0020
ENDCHAR
STARTCHAR 0052
ENCODING 82
SWIDTH 830 0
DWIDTH 15 0
BBX 9 9 2 1
BITMAP
3F80
3F80
8000
C000
C000
C000
C000
C000
8000
ENDCHAR
STARTCHAR 0053
ENCODING 83
SWIDTH 830 0
DWIDTH 15 0
BBX 11 17 2 0
BITMAP
8000
C000
C000
C000
C000
C000
8000
3F80
3F80
0020
0060
0060
0060
0060
0060
3FA0
7FC0
ENDCHAR
STARTCHAR 0054
ENCODING 84
SWIDTH 830 0
DWIDTH 15 0
BBX 10 17 2 0
BITMAP
8000
C000
C000
C000
C000
C000
8000
3F80
3F80
8000
C000
C000
C000
C000
C000
BF80
7FC0
ENDCHAR
STARTCHAR 0055
ENCODING 85
SWIDTH 830 0
DWIDTH 15 0
BBX 11 8 2 0
BITMAP
8020
C060
C060
C060
C060
C060
BFA0
7FC0
ENDCHAR
STARTCHAR 0056
ENCODING 86
SWIDTH 830 0
DWIDTH 15 0
BBX 11 17 2 0
BITMAP
8020
C060
C060
C060
C060
C060
8020
0000
0000
8020
C060
C060
C060
C060
C060
BFA0
7FC0
ENDCHAR
STARTCHAR 0057
ENCODING 87
SWIDTH 830 0
DWIDTH 15 0
BBX 11 17 2 0
BITMAP
8020
C060
C060
C060
C060
C060
8020
3F80
3F80
8020
C060
C060
C060
C060
C060
BFA0
7FC0
ENDCHAR
STARTCHAR 0058
ENCODING 88
SWIDTH 830 0
DWIDTH 15 0
BBX 11 16 2 1
BITMAP
8020
C060
C060
C060
C060
C060
8020
3F80
3F80
8020
C060
C060
C060
C060
C060
8020
ENDCHAR
STARTCHAR 0059
ENCODING 89
SWIDTH 830 0
DWIDTH 15 0
BBX 11 17 2 0
BITMAP
8020
C060
C060
C060
C060
C060
8020
3F80
3F80
0020
0060
0060
0060
0060
0060
3FA0
7FC0
ENDCHAR
STARTCHAR 005A
ENCODING 90
SWIDTH 830 0
DWIDTH 15 0
BBX 11 18 2 0
BITMAP
7FC0
3FA0
0060
0060
0060
0060
0060
0020
0000
0000
8000
C000
C000
C000
C000
C000
BF80
7FC0
ENDCHAR
STARTCHAR 005F
ENCODING 95
SWIDTH 830 0
DWIDTH 15 0
BBX 9 2 3 0
BITMAP
7F00
FF80
ENDCHAR
STARTCHAR 0061
ENCODING 97
SWIDTH 830 0
DWIDTH 15 0
BBX 11 17 2 1
BITMAP
7FC0
BFA0
C060
C060
C060
C060
C060
8020
3F80
3F80
8020
C060
C060
C060
C060
C060
8020
ENDCHAR
STARTCHAR 0062
ENCODING 98
SWIDTH 830 0
DWIDTH 15 0
BBX 11 17 2 0
BITMAP
8000
C000
C000
C000
C000
C000
8000
3F80
3F80
8020
C060
C060
C060
C060
C060
BFA0
7FC0
ENDCHAR
STARTCHAR 0063
ENCODING 99
SWIDTH 830 0
DWIDTH 15 0
BBX 10 10 2 0
BITMAP
3F80
3F80
8000
C000
C000
C000
C000
C000
BF80
7FC0
ENDCHAR
STARTCHAR 0064
ENCODING 100
SWIDTH 830 0
DWIDTH 15 0
BBX 11 17 2 0
BITMAP
0020
0060
0060
0060
0060
0060
0020
3F80
3F80
8020
C060
C060
C060
C060
C060
BFA0
7FC0
ENDCHAR
STARTCHAR 0065
ENCODING 101
SWIDTH 830 0
DWIDTH 15 0
BBX 10 18 2 0
BITMAP
7FC0
BF80
C000
C000
C000
C000
C000
8000
3F80
3F80
8000
C000
C000
C000
C000
C000
BF80
7FC0
ENDCHAR
STARTCHAR 0066
ENCODING 102
SWIDTH 830 0
DWIDTH 15 0
BBX 10 17 2 1
BITMAP
7FC0
BF80
C000
C000
C000
C000
C000
8000
3F80
3F80
8000
C000
C000
C000
C000
C000
8000
ENDCHAR
STARTCHAR 0067
ENCODING 103
SWIDTH 830 0
DWIDTH 15 0
BBX 11 18 2 0
BITMAP
7FC0
BF80
C000
C000
C000
C000
C000
8000
0000
0000
8020
C060
C060
C060
C060
C060
BFA0
7FC0
ENDCHAR
STARTCHAR 0068
ENCODING 104
SWIDTH 830 0
DWIDTH 15 0
BBX 11 16 2 1
BITMAP
8000
C000
C000
C000
C000
C000
8000
3F80
3F80
8020
C060
C060
C060
C060
C060
8020
ENDCHAR
STARTCHAR 0069
ENCODING 105
SWIDTH 830 0
DWIDTH 15 0
BBX 2 7 11 1
BITMAP
40
C0
C0
C0
C0
C0
40
ENDCHAR
STARTCHAR 006A
ENCODING 106
SWIDTH 830 0
DWIDTH 15 0
BBX 11 17 2 0
BITMAP
0020
0060
0060
0060
0060
0060
0020
0000
0000
8020
C060
C060
C060
C060
C060
BFA0
7FC0
ENDCHAR
STARTCHAR 006B
ENCODING 107
SWIDTH 830 0
DWIDTH 15 0
BBX 11 17 2 1
BITMAP
7FC0
BF80
C000
C000
C000
C000
C000
8000
3F80
3F80
8020
C060
C060
C060
C060
C060
8020
ENDCHAR
STARTCHAR 006C
ENCODING 108
SWIDTH 830 0
DWIDTH 15 0
BBX 10 17 2 0
BITMAP
8000
C000
C000
C000
C000
C000
8000
0000
0000
8000
C000
C000
C000
C000
C000
BF80
7FC0
ENDCHAR
STARTCHAR 006D
ENCODING 109
SWIDTH 830 0
DWIDTH 15 0
BBX 11 17 2 1
BITMAP
7FC0
BFA0
C060
C060
C060
C060
C060
8020
0000
0000
8020
C060
C060
C060
C060
C060
8020
ENDCHAR
STARTCHAR 006E
ENCODING 110
SWIDTH 830 0
DWIDTH 15 0
BBX 11 9 2 1
BITMAP
3F80
3F80
8020
C060
C060
C060
C060
C060
8020
ENDCHAR
STARTCHAR 006F
ENCODING 111
SWIDTH 830 0
DWIDTH 15 0
BBX 11 10 2 0
BITMAP
3F80
3F80
8020
C060
C060
C060
C060
C060
BFA0
7FC0
ENDCHAR
STARTCHAR 0070
ENCODING 112
SWIDTH 830 0
DWIDTH 15 0
BBX 11 17 2 1
BITMAP
7FC0
BFA0
C060
C060
C060
C060
C060
8020
3F80
3F80
8000
C000
C000
C000
C000
C000
8000
ENDCHAR
STARTCHAR 0071
ENCODING 113
SWIDTH 830 0
DWIDTH 15 0
BBX 11 17 2 1
BITMAP
7FC0
BFA0
C060
C060
C060
C060
C060
8020
3F80
3F80
0020
0060
0060
0060
0060
0060
0020
ENDCHAR
STARTCHAR 0072
ENCODING 114
SWIDTH 830 0
DWIDTH 15 0
BBX 9 9 2 1
BITMAP
3F80
3F80
8000
C000
C000
C000
C000
C000
8000
ENDCHAR
STARTCHAR 0073
ENCODING 115
SWIDTH 830 0
DWIDTH 15 0
BBX 11 17 2 0
BITMAP
8000
C000
C000
C000
C000
C000
8000
3F80
3F80
0020
0060
0060
0060
0060
0060
3FA0
7FC0
ENDCHAR
STARTCHAR 0074
ENCODING 116
SWIDTH 830 0
DWIDTH 15 0
BBX 10 17 2 0
BITMAP
8000
C000
C000
C000
C000
C000
8000
3F80
3F80
8000
C000
C000
C000
C000
C000
BF80
7FC0
ENDCHAR
STARTCHAR 0075
ENCODING 117
SWIDTH 830 0
DWIDTH 15 0
BBX 11 8 2 0
BITMAP
8020
C060
C060
C060
C060
C060
BFA0
7FC0
ENDCHAR
STARTCHAR 0076
ENCODING 118
SWIDTH 830 0
DWIDTH 15 0
BBX 11 17 2 0
BITMAP
8020
C060
C060
C060
C060
C060
8020
0000
0000
8020
C060
C060
C060
C060
C060
BFA0
7FC0
ENDCHAR
STARTCHAR 0077
ENCODING 119
SWIDTH 830 0
DWIDTH 15 0
BBX 11 17 2 0
BITMAP
8020
C060
C060
C060
C060
C060
8020
3F80
3F80
8020
C060
C060
C060
C060
C060
BFA0
7FC0
ENDCHAR
STARTCHAR 0078
ENCODING 120
SWIDTH 830 0
DWIDTH 15 0
BBX 11 16 2 1
BITMAP
8020
C060
C060
C060
C060
C060
8020
3F80
3F80
8020
C060
C060
C060
C060
C060
8020
ENDCHAR
STARTCHAR 0079
ENCODING 121
SWIDTH 830 0
DWIDTH 15 0
BBX 11 17 2 0
BITMAP
8020
C060
C060
C060
C060
C060
8020
3F80
3F80
0020
0060
0060
0060
0060
0060
3FA0
7FC0
ENDCHAR
STARTCHAR 007A
ENCODING 122
SWIDTH 830 0
DWIDTH 15 0
BBX 11 18 2 0
BITMAP
7FC0
3FA0
0060
0060
0060
0060
0060
0020
0000
0000
8000
C000
C000
C000
C000
C000
BF80
7FC0
ENDCHAR
STARTCHAR 00B0
ENCODING 176
SWIDTH 830 0
DWIDTH 15 0
BBX 11 10 2 8
BITMAP
7FC0
BFA0
C060
C060
C060
C060
C060
8020
3F80
3F80
ENDCHAR
ENDFONT
